<svg viewBox="0 0 196 44" id="terma_logo" xmlns="http://www.w3.org/2000/svg"><g fill="currentColor"><path d="M40.447 28.747H52.41V21.87H40.447v-6.975h12.549V7.92H32.039v35.559h21.608v-7.203h-13.2zM0 7.92v7.594h8.279V43.48h8.8V15.514h8.31V7.92zm81.156 20.044c4.334-1.434 6.094-5.475 6.094-9.06 0-6.095-3.846-10.397-9.81-10.788 0 0-1.173-.13-3.585-.163-1.336-.033-12.157 0-12.157 0V43.51h8.409V14.57c2.183-.033 3.813.032 3.813.032 3.096.098 5.247 1.956 5.247 5.346 0 3.063-2.542 4.986-5.312 5.15 0 0-.587.064-2.77.064 0 .066.032.098.032.163l8.572 18.187h10.038l-8.571-15.547zM195.23 10.332c-.587 2.835-1.956 5.997-4.53 7.855-2.576 1.857-6.324 2.444-9.68 2.444-3.358 0-6.878-.587-8.703-2.444-1.825-1.858-1.956-5.02-1.401-7.855.586-2.836 1.988-5.997 4.53-7.855 2.575-1.858 6.323-2.38 9.68-2.38 3.357 0 6.877.522 8.702 2.38 1.858 1.858 1.988 5.02 1.402 7.855m-3.911-6.877c-1.337-1.597-4.01-1.956-6.519-1.956-2.51 0-5.378.359-7.333 1.956-1.956 1.597-2.999 4.4-3.455 6.844-.456 2.445-.456 5.248.847 6.845 1.337 1.597 4.042 1.923 6.519 1.923 2.51 0 5.345-.326 7.3-1.923 1.956-1.597 2.999-4.4 3.455-6.845.522-2.412.522-5.215-.814-6.844"></path><path d="M178.444 7.92h3.26l-1.76 9.028h3.715l1.793-9.028h3.26l.618-3.324h-10.234zm-53.81 8.572v26.987h8.637V7.92H119.42l-5.247 22.293h-.098L109.316 7.92h-14.21v35.559h8.408V16.492h.098l7.235 26.987h5.997l7.692-26.987h.098m34.613-8.572h-10.625l-11.896 35.559h9.224l2.314-7.53h10.527l1.89 7.53h9.974L159.247 7.92zm-9.321 21.185l3.846-13.95h.098l3.129 13.95h-7.073z"></path></g></svg>
